<mxfile host="Electron" modified="2023-11-07T16:47:02.045Z" agent="Mozilla/5.0 (Macintosh; Intel Mac OS X 10_15_7) AppleWebKit/537.36 (KHTML, like Gecko) draw.io/22.0.3 Chrome/114.0.5735.289 Electron/25.8.4 Safari/537.36" etag="pPrIJGLUwMBRhwBaH0m9" version="22.0.3" type="device">
  <diagram id="eOFOYFhU0GsHmSKvHhCn" name="Pagina-1">
    <mxGraphModel dx="628" dy="462" grid="1" gridSize="10" guides="1" tooltips="1" connect="1" arrows="1" fold="1" page="1" pageScale="1" pageWidth="827" pageHeight="1169" math="1" shadow="0">
      <root>
        <mxCell id="0" />
        <mxCell id="1" parent="0" />
        <mxCell id="-Wk1aWWQlNWJjsIihzdT-6" value="$$V(x)$$" style="text;html=1;strokeColor=none;fillColor=none;align=center;verticalAlign=middle;whiteSpace=wrap;rounded=0;fontSize=13;fontColor=#1A1A1A;" parent="1" vertex="1">
          <mxGeometry x="505" y="305" width="60" height="30" as="geometry" />
        </mxCell>
        <mxCell id="1sHnC9SIz_1kgPtoTxCF-2" value="$$x^*$$" style="text;html=1;strokeColor=none;fillColor=none;align=center;verticalAlign=middle;whiteSpace=wrap;rounded=0;fontSize=15;fontColor=#1A1A1A;" parent="1" vertex="1">
          <mxGeometry x="473" y="482" width="60" height="30" as="geometry" />
        </mxCell>
        <mxCell id="1sHnC9SIz_1kgPtoTxCF-3" value="" style="endArrow=none;html=1;rounded=0;edgeStyle=orthogonalEdgeStyle;curved=1;" parent="1" edge="1">
          <mxGeometry width="50" height="50" relative="1" as="geometry">
            <mxPoint x="300" y="270" as="sourcePoint" />
            <mxPoint x="520" y="470" as="targetPoint" />
            <Array as="points">
              <mxPoint x="300" y="470" />
            </Array>
          </mxGeometry>
        </mxCell>
        <mxCell id="1sHnC9SIz_1kgPtoTxCF-1" value="" style="endArrow=classic;html=1;rounded=0;fontSize=25;fontColor=#1A1A1A;strokeWidth=2;" parent="1" edge="1">
          <mxGeometry width="50" height="50" relative="1" as="geometry">
            <mxPoint x="500" y="490" as="sourcePoint" />
            <mxPoint x="500" y="240" as="targetPoint" />
          </mxGeometry>
        </mxCell>
        <mxCell id="g6H5PsluWuEb6vaTz6EE-4" value="" style="endArrow=none;dashed=1;html=1;strokeWidth=2;rounded=0;" parent="1" edge="1">
          <mxGeometry width="50" height="50" relative="1" as="geometry">
            <mxPoint x="300" y="293" as="sourcePoint" />
            <mxPoint x="520" y="293" as="targetPoint" />
          </mxGeometry>
        </mxCell>
        <mxCell id="g6H5PsluWuEb6vaTz6EE-7" value="$$\alpha_0$$" style="text;html=1;strokeColor=none;fillColor=none;align=center;verticalAlign=middle;whiteSpace=wrap;rounded=0;fontSize=15;fontColor=#1A1A1A;" parent="1" vertex="1">
          <mxGeometry x="504" y="276" width="60" height="30" as="geometry" />
        </mxCell>
        <mxCell id="rgP2N9JaqtHhb8GfTGPO-1" value="$$x$$" style="text;html=1;strokeColor=none;fillColor=none;align=center;verticalAlign=middle;whiteSpace=wrap;rounded=0;fontSize=13;fontColor=#1A1A1A;" parent="1" vertex="1">
          <mxGeometry x="267" y="313" width="60" height="30" as="geometry" />
        </mxCell>
        <mxCell id="rgP2N9JaqtHhb8GfTGPO-2" value="" style="ellipse;whiteSpace=wrap;html=1;aspect=fixed;strokeColor=default;fillColor=#000000;" parent="1" vertex="1">
          <mxGeometry x="302" y="318" width="4" height="4" as="geometry" />
        </mxCell>
        <mxCell id="rgP2N9JaqtHhb8GfTGPO-5" value="$$z$$" style="text;html=1;strokeColor=none;fillColor=none;align=center;verticalAlign=middle;whiteSpace=wrap;rounded=0;fontSize=13;fontColor=#1A1A1A;" parent="1" vertex="1">
          <mxGeometry x="367" y="390" width="27" height="30" as="geometry" />
        </mxCell>
        <mxCell id="rgP2N9JaqtHhb8GfTGPO-16" value="" style="endArrow=none;dashed=1;html=1;strokeWidth=0.8;rounded=0;dashPattern=1 2;" parent="1" edge="1">
          <mxGeometry width="50" height="50" relative="1" as="geometry">
            <mxPoint x="252" y="320" as="sourcePoint" />
            <mxPoint x="348" y="470" as="targetPoint" />
            <Array as="points">
              <mxPoint x="302" y="320" />
              <mxPoint x="302" y="416" />
              <mxPoint x="328" y="416" />
              <mxPoint x="348" y="416" />
            </Array>
          </mxGeometry>
        </mxCell>
        <mxCell id="rgP2N9JaqtHhb8GfTGPO-33" value="$$\alpha = V(z)$$" style="text;html=1;strokeColor=none;fillColor=none;align=center;verticalAlign=middle;whiteSpace=wrap;rounded=0;fontSize=13;fontColor=#1A1A1A;" parent="1" vertex="1">
          <mxGeometry x="520" y="397.75" width="60" height="30" as="geometry" />
        </mxCell>
        <mxCell id="rgP2N9JaqtHhb8GfTGPO-34" value="$$B(x)$$" style="text;html=1;strokeColor=none;fillColor=none;align=center;verticalAlign=middle;whiteSpace=wrap;rounded=0;fontSize=13;fontColor=#1A1A1A;" parent="1" vertex="1">
          <mxGeometry x="253" y="350" width="60" height="30" as="geometry" />
        </mxCell>
        <mxCell id="rgP2N9JaqtHhb8GfTGPO-38" value="" style="ellipse;whiteSpace=wrap;html=1;aspect=fixed;strokeColor=default;fillColor=#000000;" parent="1" vertex="1">
          <mxGeometry x="314" y="359" width="3" height="3" as="geometry" />
        </mxCell>
        <mxCell id="rgP2N9JaqtHhb8GfTGPO-39" value="" style="ellipse;whiteSpace=wrap;html=1;aspect=fixed;strokeColor=default;fillColor=#000000;" parent="1" vertex="1">
          <mxGeometry x="327" y="387" width="3" height="3" as="geometry" />
        </mxCell>
        <mxCell id="rgP2N9JaqtHhb8GfTGPO-40" value="" style="ellipse;whiteSpace=wrap;html=1;aspect=fixed;strokeColor=default;fillColor=#000000;" parent="1" vertex="1">
          <mxGeometry x="339" y="403.5" width="3" height="3" as="geometry" />
        </mxCell>
        <mxCell id="rgP2N9JaqtHhb8GfTGPO-41" value="$$z_0$$" style="text;html=1;strokeColor=none;fillColor=none;align=center;verticalAlign=middle;whiteSpace=wrap;rounded=0;fontSize=8;fontColor=#1A1A1A;" parent="1" vertex="1">
          <mxGeometry x="294" y="340" width="60" height="30" as="geometry" />
        </mxCell>
        <mxCell id="rgP2N9JaqtHhb8GfTGPO-44" value="" style="endArrow=none;dashed=1;html=1;strokeWidth=2;rounded=0;" parent="1" edge="1">
          <mxGeometry width="50" height="50" relative="1" as="geometry">
            <mxPoint x="307" y="320" as="sourcePoint" />
            <mxPoint x="520" y="320" as="targetPoint" />
          </mxGeometry>
        </mxCell>
        <mxCell id="wvfqn0w4FJYer95w_PsG-8" value="" style="whiteSpace=wrap;html=1;fillColor=#FFFFFF;strokeColor=none;movable=1;resizable=1;rotatable=1;deletable=1;editable=1;locked=0;connectable=1;" vertex="1" parent="1">
          <mxGeometry x="347" y="414.25" width="55" height="69" as="geometry" />
        </mxCell>
        <mxCell id="rgP2N9JaqtHhb8GfTGPO-45" value="$$y$$" style="text;html=1;strokeColor=none;fillColor=none;align=center;verticalAlign=middle;whiteSpace=wrap;rounded=0;fontSize=13;fontColor=#1A1A1A;" parent="1" vertex="1">
          <mxGeometry x="382.5" y="439" width="19" height="30" as="geometry" />
        </mxCell>
        <mxCell id="rgP2N9JaqtHhb8GfTGPO-50" value="" style="ellipse;whiteSpace=wrap;html=1;aspect=fixed;strokeColor=default;fillColor=#000000;" parent="1" vertex="1">
          <mxGeometry x="347" y="412.5" width="3" height="3" as="geometry" />
        </mxCell>
        <mxCell id="rgP2N9JaqtHhb8GfTGPO-51" value="" style="ellipse;whiteSpace=wrap;html=1;aspect=fixed;strokeColor=default;fillColor=#000000;" parent="1" vertex="1">
          <mxGeometry x="400.5" y="448" width="4" height="4" as="geometry" />
        </mxCell>
        <mxCell id="rgP2N9JaqtHhb8GfTGPO-54" value="" style="curved=1;endArrow=classic;html=1;rounded=0;" parent="1" edge="1">
          <mxGeometry width="50" height="50" relative="1" as="geometry">
            <mxPoint x="384" y="417" as="sourcePoint" />
            <mxPoint x="404" y="447" as="targetPoint" />
            <Array as="points">
              <mxPoint x="394" y="427" />
            </Array>
          </mxGeometry>
        </mxCell>
        <mxCell id="rgP2N9JaqtHhb8GfTGPO-55" value="$$\zeta(t)$$" style="text;html=1;strokeColor=none;fillColor=none;align=center;verticalAlign=middle;whiteSpace=wrap;rounded=0;fontSize=13;fontColor=#1A1A1A;" parent="1" vertex="1">
          <mxGeometry x="379.5" y="409" width="60" height="30" as="geometry" />
        </mxCell>
        <mxCell id="rgP2N9JaqtHhb8GfTGPO-57" value="" style="endArrow=baseDash;html=1;strokeWidth=1;rounded=0;startArrow=baseDash;startFill=0;endFill=0;" parent="1" edge="1">
          <mxGeometry width="50" height="50" relative="1" as="geometry">
            <mxPoint x="507" y="324" as="sourcePoint" />
            <mxPoint x="507" y="347" as="targetPoint" />
          </mxGeometry>
        </mxCell>
        <mxCell id="rgP2N9JaqtHhb8GfTGPO-59" value="$$\epsilon$$" style="text;html=1;strokeColor=none;fillColor=none;align=center;verticalAlign=middle;whiteSpace=wrap;rounded=0;fontSize=8;fontColor=#1A1A1A;" parent="1" vertex="1">
          <mxGeometry x="483" y="323" width="60" height="30" as="geometry" />
        </mxCell>
        <mxCell id="wvfqn0w4FJYer95w_PsG-5" value="" style="endArrow=baseDash;html=1;strokeWidth=1;rounded=0;startArrow=baseDash;startFill=0;endFill=0;" edge="1" parent="1">
          <mxGeometry width="50" height="50" relative="1" as="geometry">
            <mxPoint x="507" y="419.5" as="sourcePoint" />
            <mxPoint x="507" y="442.5" as="targetPoint" />
          </mxGeometry>
        </mxCell>
        <mxCell id="wvfqn0w4FJYer95w_PsG-6" value="$$\epsilon$$" style="text;html=1;strokeColor=none;fillColor=none;align=center;verticalAlign=middle;whiteSpace=wrap;rounded=0;fontSize=8;fontColor=#1A1A1A;" vertex="1" parent="1">
          <mxGeometry x="483" y="415.5" width="60" height="30" as="geometry" />
        </mxCell>
        <mxCell id="rgP2N9JaqtHhb8GfTGPO-42" value="$$z_n$$" style="text;html=1;strokeColor=none;fillColor=none;align=center;verticalAlign=middle;whiteSpace=wrap;rounded=0;fontSize=8;fontColor=#1A1A1A;" parent="1" vertex="1">
          <mxGeometry x="338" y="391.75" width="30" height="30" as="geometry" />
        </mxCell>
        <mxCell id="rgP2N9JaqtHhb8GfTGPO-43" value="$$z_1$$" style="text;html=1;strokeColor=none;fillColor=none;align=center;verticalAlign=middle;whiteSpace=wrap;rounded=0;fontSize=8;fontColor=#1A1A1A;" parent="1" vertex="1">
          <mxGeometry x="318" y="368.75" width="40" height="30" as="geometry" />
        </mxCell>
        <mxCell id="rgP2N9JaqtHhb8GfTGPO-48" value="$$\ddots$$" style="text;html=1;strokeColor=none;fillColor=none;align=center;verticalAlign=middle;whiteSpace=wrap;rounded=0;fontSize=8;fontColor=#1A1A1A;rotation=20;" parent="1" vertex="1">
          <mxGeometry x="325" y="381.25" width="42" height="30" as="geometry" />
        </mxCell>
        <mxCell id="rgP2N9JaqtHhb8GfTGPO-30" value="" style="ellipse;whiteSpace=wrap;html=1;aspect=fixed;strokeColor=default;fillColor=#000000;" parent="1" vertex="1">
          <mxGeometry x="378.5" y="413" width="4" height="4" as="geometry" />
        </mxCell>
        <mxCell id="wvfqn0w4FJYer95w_PsG-10" value="" style="endArrow=none;html=1;rounded=0;" edge="1" parent="1">
          <mxGeometry width="50" height="50" relative="1" as="geometry">
            <mxPoint x="349" y="415" as="sourcePoint" />
            <mxPoint x="379" y="415" as="targetPoint" />
          </mxGeometry>
        </mxCell>
        <mxCell id="wvfqn0w4FJYer95w_PsG-11" value="" style="endArrow=none;html=1;rounded=0;edgeStyle=orthogonalEdgeStyle;curved=1;" edge="1" parent="1">
          <mxGeometry width="50" height="50" relative="1" as="geometry">
            <mxPoint x="380.5" y="416.5" as="sourcePoint" />
            <mxPoint x="400.25" y="450.5" as="targetPoint" />
            <Array as="points">
              <mxPoint x="380.5" y="450.5" />
            </Array>
          </mxGeometry>
        </mxCell>
        <mxCell id="-Wk1aWWQlNWJjsIihzdT-1" value="" style="endArrow=classic;html=1;rounded=0;fontSize=25;fontColor=#1A1A1A;strokeWidth=2;" parent="1" edge="1">
          <mxGeometry width="50" height="50" relative="1" as="geometry">
            <mxPoint x="240" y="470" as="sourcePoint" />
            <mxPoint x="563" y="470" as="targetPoint" />
          </mxGeometry>
        </mxCell>
        <mxCell id="wvfqn0w4FJYer95w_PsG-12" value="" style="endArrow=none;dashed=1;html=1;strokeWidth=2;rounded=0;" edge="1" parent="1">
          <mxGeometry width="50" height="50" relative="1" as="geometry">
            <mxPoint x="378.5" y="414.72" as="sourcePoint" />
            <mxPoint x="520" y="414.72" as="targetPoint" />
          </mxGeometry>
        </mxCell>
      </root>
    </mxGraphModel>
  </diagram>
</mxfile>
